<svg width="18" height="18" viewBox="0 0 18 18" fill="none" xmlns="http://www.w3.org/2000/svg">
<g clip-path="url(#clip0_345_171)">
<path d="M9 7.26923C9.74375 7.26923 10.3797 7.57392 10.9078 8.18329C11.4359 8.79267 11.7 9.52644 11.7 10.3846C11.7 11.2428 11.4359 11.9766 10.9078 12.5859C10.3797 13.1953 9.74375 13.5 9 13.5C8.25625 13.5 7.62031 13.1953 7.09219 12.5859C6.56406 11.9766 6.3 11.2428 6.3 10.3846C6.3 9.52644 6.56406 8.79267 7.09219 8.18329C7.62031 7.57392 8.25625 7.26923 9 7.26923ZM15.6 2.76923C16.2625 2.76923 16.8281 3.03966 17.2969 3.58053C17.7656 4.12139 18 4.77404 18 5.53846V15.2308C18 15.9952 17.7656 16.6478 17.2969 17.1887C16.8281 17.7296 16.2625 18 15.6 18H2.4C1.7375 18 1.17188 17.7296 0.703125 17.1887C0.234375 16.6478 0 15.9952 0 15.2308V5.53846C0 4.77404 0.234375 4.12139 0.703125 3.58053C1.17188 3.03966 1.7375 2.76923 2.4 2.76923H4.5L4.97813 1.29808C5.09688 0.944712 5.31406 0.640024 5.62969 0.384014C5.94531 0.128005 6.26875 0 6.6 0H11.4C11.7313 0 12.0547 0.128005 12.3703 0.384014C12.6859 0.640024 12.9031 0.944712 13.0219 1.29808L13.5 2.76923H15.6ZM9 15.2308C10.1562 15.2308 11.1453 14.7566 11.9672 13.8083C12.7891 12.86 13.2 11.7188 13.2 10.3846C13.2 9.05048 12.7891 7.90926 11.9672 6.96094C11.1453 6.01262 10.1562 5.53846 9 5.53846C7.84375 5.53846 6.85469 6.01262 6.03281 6.96094C5.21094 7.90926 4.8 9.05048 4.8 10.3846C4.8 11.7188 5.21094 12.86 6.03281 13.8083C6.85469 14.7566 7.84375 15.2308 9 15.2308Z" fill="#8E837D"/>
</g>
<defs>
<clipPath id="clip0_345_171">
<rect width="18" height="18" fill="white"/>
</clipPath>
</defs>
</svg>
