<svg width="11" height="11" viewBox="0 0 11 11" fill="none" xmlns="http://www.w3.org/2000/svg">
<rect width="11" height="11" fill="#D9D9D9"/>
<path d="M5.50021 7.85721C5.39994 7.85676 5.30103 7.83647 5.21068 7.79782C5.12032 7.75916 5.04077 7.70311 4.97781 7.63372L3.3242 5.85277C3.22758 5.74555 3.16677 5.61636 3.14872 5.47991C3.13066 5.34346 3.15608 5.20525 3.22208 5.08102C3.27561 4.97306 3.36296 4.88107 3.4737 4.81605C3.58445 4.75103 3.7139 4.71573 3.8466 4.71436H7.15382C7.28652 4.71573 7.41597 4.75103 7.52671 4.81605C7.63746 4.88107 7.72481 4.97306 7.77834 5.08102C7.84434 5.20525 7.86976 5.34346 7.8517 5.47991C7.83365 5.61636 7.77284 5.74555 7.67621 5.85277L6.02261 7.63372C5.95965 7.70311 5.8801 7.75916 5.78974 7.79782C5.69939 7.83647 5.60048 7.85676 5.50021 7.85721Z" fill="#A35638"/>
</svg>
