<svg width="26" height="26" viewBox="0 0 26 26" fill="none" xmlns="http://www.w3.org/2000/svg">
<path d="M11.6552 21.8534C8.95042 21.8534 6.35645 20.779 4.4439 18.8664C2.53135 16.9539 1.4569 14.3599 1.4569 11.6552C1.4569 8.95042 2.53135 6.35645 4.4439 4.4439C6.35645 2.53135 8.95042 1.4569 11.6552 1.4569C14.3599 1.4569 16.9539 2.53135 18.8664 4.4439C20.779 6.35645 21.8534 8.95042 21.8534 11.6552C21.8534 14.3599 20.779 16.9539 18.8664 18.8664C16.9539 20.779 14.3599 21.8534 11.6552 21.8534ZM11.6552 23.3103C14.7463 23.3103 17.7109 22.0824 19.8966 19.8966C22.0824 17.7109 23.3103 14.7463 23.3103 11.6552C23.3103 8.56403 22.0824 5.59949 19.8966 3.41372C17.7109 1.22795 14.7463 0 11.6552 0C8.56403 0 5.59949 1.22795 3.41372 3.41372C1.22795 5.59949 0 8.56403 0 11.6552C0 14.7463 1.22795 17.7109 3.41372 19.8966C5.59949 22.0824 8.56403 23.3103 11.6552 23.3103Z" fill="#8E837D"/>
<path d="M6.24311 13.9383C6.41042 13.8417 6.60925 13.8155 6.79586 13.8655C6.98246 13.9155 7.14157 14.0376 7.23817 14.2049C7.6856 14.9805 8.32946 15.6245 9.10493 16.0721C9.8804 16.5196 10.7601 16.755 11.6555 16.7545C12.5509 16.755 13.4306 16.5196 14.206 16.0721C14.9815 15.6245 15.6254 14.9805 16.0728 14.2049C16.1203 14.1214 16.1838 14.0481 16.2597 13.9893C16.3357 13.9304 16.4225 13.8871 16.5152 13.862C16.6079 13.8368 16.7047 13.8302 16.7999 13.8426C16.8952 13.855 16.9871 13.8861 17.0703 13.9341C17.1535 13.9822 17.2263 14.0462 17.2847 14.1225C17.3431 14.1988 17.3857 14.2859 17.4103 14.3788C17.4348 14.4717 17.4408 14.5685 17.4278 14.6636C17.4148 14.7588 17.383 14.8505 17.3345 14.9334C16.7592 15.9304 15.9314 16.7583 14.9345 17.3338C13.9375 17.9092 12.8066 18.2119 11.6555 18.2114C10.5044 18.2119 9.37345 17.9092 8.37651 17.3338C7.37957 16.7583 6.55179 15.9304 5.9765 14.9334C5.8799 14.7661 5.85373 14.5672 5.90373 14.3806C5.95373 14.194 6.0758 14.0349 6.24311 13.9383ZM10.1986 9.47001C10.1986 10.6763 9.54589 11.6554 8.74169 11.6554C7.93748 11.6554 7.28479 10.6763 7.28479 9.47001C7.28479 8.2637 7.93748 7.28467 8.74169 7.28467C9.54589 7.28467 10.1986 8.2637 10.1986 9.47001ZM16.0262 9.47001C16.0262 10.6763 15.3735 11.6554 14.5693 11.6554C13.7651 11.6554 13.1124 10.6763 13.1124 9.47001C13.1124 8.2637 13.7651 7.28467 14.5693 7.28467C15.3735 7.28467 16.0262 8.2637 16.0262 9.47001Z" fill="#8E837D"/>
</svg>
