<svg width="37" height="37" viewBox="0 0 37 37" fill="none" xmlns="http://www.w3.org/2000/svg">
<circle cx="18.5" cy="18.5" r="18.5" fill="#A35638"/>
<path d="M19.0003 21.9165C20.842 21.9165 22.3337 20.4248 22.3337 18.5832V13.9998C22.3337 12.1582 20.842 10.6665 19.0003 10.6665C17.1587 10.6665 15.667 12.1582 15.667 13.9998V18.5832C15.667 20.4248 17.1587 21.9165 19.0003 21.9165Z" stroke="white" stroke-width="1.5" stroke-linecap="round" stroke-linejoin="round"/>
<path d="M12.625 17.0414V18.4581C12.625 21.9748 15.4833 24.8331 19 24.8331C22.5167 24.8331 25.375 21.9748 25.375 18.4581V17.0414M17.8417 14.3581C18.5917 14.0831 19.4083 14.0831 20.1583 14.3581M18.3333 16.1248C18.775 16.0081 19.2333 16.0081 19.675 16.1248M19 24.8331V27.3331" stroke="white" stroke-width="1.5" stroke-linecap="round" stroke-linejoin="round"/>
</svg>
