<svg width="11" height="11" viewBox="0 0 11 11" fill="none" xmlns="http://www.w3.org/2000/svg">
<path d="M0 0H11V11H0V0Z" fill="#D9D9D9"/>
<path d="M5.49979 3.14279C5.60006 3.14324 5.69897 3.16353 5.78932 3.20218C5.87968 3.24084 5.95923 3.29689 6.02219 3.36628L7.6758 5.14723C7.77242 5.25445 7.83323 5.38364 7.85128 5.52009C7.86934 5.65654 7.84392 5.79475 7.77792 5.91898C7.72439 6.02694 7.63704 6.11893 7.5263 6.18395C7.41555 6.24897 7.2861 6.28427 7.1534 6.28564L3.84618 6.28564C3.71348 6.28427 3.58403 6.24897 3.47329 6.18395C3.36254 6.11893 3.27519 6.02694 3.22166 5.91898C3.15566 5.79475 3.13024 5.65654 3.1483 5.52009C3.16635 5.38364 3.22716 5.25445 3.32379 5.14723L4.97739 3.36628C5.04035 3.29689 5.1199 3.24084 5.21026 3.20218C5.30061 3.16353 5.39952 3.14324 5.49979 3.14279Z" fill="#A35638"/>
</svg>
